<svg width="71" height="73" viewBox="0 0 71 73" fill="none" xmlns="http://www.w3.org/2000/svg">
<g id="css">
<rect id="Rectangle 2" x="0.5" y="0.928741" width="70" height="72" rx="16" fill="#1572B6"/>
<g id="&#240;&#159;&#166;&#134; icon &#34;file type css&#34;">
<path id="Vector" d="M13.1256 66.4366L7.94 8.25214H64.94L59.7475 66.4273L36.4054 72.8989L13.1256 66.4366Z" fill="#1572B6"/>
<path id="Vector_2" d="M36.44 67.9535L55.303 62.724L59.7406 13.0106H36.44V67.9535Z" fill="#33A9DC"/>
<path id="Vector_3" d="M36.44 34.0901H45.8831L46.5341 26.7827H36.44V19.6461H36.4654H54.3333L54.1625 21.5602L52.4101 41.2266H36.44V34.0901Z" fill="white"/>
<path id="Vector_4" d="M36.4839 52.6229L36.4515 52.6321L28.5046 50.4849L27.9967 44.7937H24.134H20.8324L21.8321 55.9984L36.4492 60.0573L36.4839 60.048V52.6229Z" fill="#EBEBEB"/>
<path id="Vector_5" d="M45.2758 40.9242L44.4169 50.4803L36.4585 52.6275V60.0527L51.0871 55.9984L51.1956 54.7932L52.4355 40.9242H45.2758Z" fill="white"/>
<g id="Group">
<path id="Vector_6" d="M36.4654 19.6461V24.0791V26.7642V26.7827H19.2509H19.2278L19.0846 25.1781L18.7591 21.5602L18.5882 19.6461H36.4654Z" fill="#EBEBEB"/>
<path id="Vector_7" d="M36.44 34.0901V38.523V41.2082V41.2267H28.6154H28.5923L28.4492 39.622L28.1259 36.0041L27.9551 34.0901H36.44Z" fill="#EBEBEB"/>
</g>
</g>
</g>
</svg>
