<svg width="71" height="73" viewBox="0 0 71 73" fill="none" xmlns="http://www.w3.org/2000/svg">
<g id="sass">
<rect id="Rectangle 1" x="0.5" y="0.928741" width="70" height="72" rx="16" fill="#CD6799"/>
<g id="&#240;&#159;&#166;&#134; icon &#34;file type sass&#34;">
<path id="Vector" d="M57.5198 40.2232C55.6044 40.2257 53.7146 40.6637 51.9933 41.5041C51.4544 40.6098 51.0382 39.647 50.756 38.6417C50.5939 37.8537 50.5564 37.0452 50.6449 36.2455C50.8311 35.3657 51.0727 34.4984 51.3681 33.649C51.3572 33.5379 51.2353 33.0129 50.0088 32.9954C48.7824 32.978 47.7259 33.2285 47.6127 33.5531C47.3997 34.1459 47.2286 34.753 47.1007 35.3698C46.0857 37.8739 44.8363 40.2764 43.3692 42.5453C42.5473 41.1978 42.2092 39.6104 42.4108 38.0449C42.597 37.165 42.8385 36.2977 43.134 35.4483C43.1231 35.3372 43.0011 34.8122 41.7747 34.7948C40.5483 34.7773 39.4918 35.0278 39.3785 35.3524C39.2652 35.677 39.1215 36.4416 38.8666 37.1692C38.6117 37.8967 35.6361 44.5451 34.8562 46.2594C34.4554 47.1308 34.1091 47.8409 33.8651 48.3201C33.8535 48.3513 33.8389 48.3812 33.8215 48.4094C33.6037 48.8212 33.4882 49.0455 33.4882 49.0455V49.0564C33.3205 49.357 33.1419 49.6359 33.0526 49.6359C32.8968 49.0135 32.9043 48.3615 33.0744 47.7429C33.51 45.436 34.5774 41.8504 34.5665 41.7263C34.5665 41.6587 34.7669 41.0357 33.876 40.7133C33.6694 40.615 33.4373 40.5832 33.2118 40.6222C32.9863 40.6612 32.7785 40.7691 32.6169 40.9312C32.5385 40.9312 32.484 41.1207 32.484 41.1207C32.484 41.1207 33.4534 37.0886 30.6346 37.0886C29.5369 37.3094 28.4945 37.7474 27.5686 38.3771C26.6427 39.0067 25.8521 39.8151 25.2432 40.7547C24.4851 41.1664 22.871 42.0465 21.1435 42.9941C20.49 43.3622 19.806 43.7303 19.1721 44.0832C19.1286 44.0397 19.0828 43.983 19.0393 43.9395C15.6084 40.2842 9.30203 37.705 9.57433 32.8146C9.67453 31.0328 10.2867 26.3537 21.6838 20.6703C31.0637 16.0479 38.5289 17.3288 39.8207 20.1693C41.6701 24.2254 35.8213 31.756 26.1298 32.8473C25.0576 33.0648 23.9503 33.0386 22.8896 32.7705C21.829 32.5024 20.8421 31.9994 20.0021 31.2985C19.4902 30.7409 19.4118 30.7082 19.2222 30.8193C18.9107 30.987 19.1111 31.488 19.2222 31.7777C19.592 32.4468 20.092 33.035 20.6929 33.5076C21.2938 33.9801 21.9833 34.3274 22.7207 34.529C26.5333 35.3529 30.5084 34.959 34.0851 33.4028C39.9667 31.1308 44.5412 24.8136 43.1993 19.5224C41.8509 14.1527 32.9393 12.3817 24.5047 15.3835C19.2217 17.1612 14.3402 19.9613 10.1385 23.6242C5.4921 27.97 4.758 31.7451 5.05861 33.3287C6.14779 38.9445 13.8831 42.5976 16.9785 45.3097C16.8217 45.399 16.6779 45.4774 16.5559 45.5427C15.0071 46.3117 9.10381 49.3984 7.62471 52.6616C5.95391 56.3648 7.89264 59.0115 9.17351 59.3687C11.1035 59.8307 13.1297 59.6785 14.969 58.9334C16.8084 58.1883 18.3692 56.8874 19.4335 55.2124C20.3399 53.8231 20.897 52.2353 21.0574 50.5843C21.2178 48.9332 20.9769 47.2679 20.355 45.7301C20.3445 45.7052 20.3297 45.6824 20.3114 45.6625L21.5248 44.9502C22.3155 44.4819 23.0953 44.0484 23.7641 43.6911C23.3106 44.9991 23.0444 46.3647 22.9734 47.7472C22.8194 49.8663 23.4679 51.9657 24.7901 53.6288C24.9913 53.802 25.2249 53.9335 25.4773 54.0158C25.7297 54.098 25.9959 54.1294 26.2605 54.108C27.5675 54.108 28.1665 53.0188 28.8222 51.7249C29.6238 50.1434 30.3471 48.3049 30.3471 48.3049C30.3471 48.3049 29.4452 53.2737 31.8959 53.2737C32.7868 53.2737 33.6886 52.1148 34.0916 51.531V51.5419C34.0916 51.5419 34.1134 51.5092 34.1592 51.4308L34.3029 51.1977V51.1759C34.6602 50.5529 35.4618 49.137 36.6534 46.7866C38.1913 43.7565 39.6726 39.9683 39.6726 39.9683C39.8154 40.8008 40.0126 41.6231 40.2629 42.4299C40.6217 43.4078 41.046 44.3605 41.5329 45.2813C41.1756 45.7824 40.9534 46.0612 40.9534 46.0612L40.9643 46.0721C40.6746 46.4511 40.3631 46.8628 40.0168 47.2636C38.9863 48.3966 38.0301 49.595 37.1544 50.8514C37.0243 51.0624 36.9796 51.3151 37.0293 51.558C37.0791 51.8008 37.2197 52.0156 37.4223 52.1584C37.8809 52.397 38.4036 52.4832 38.9145 52.4045C39.6844 52.3611 40.4415 52.188 41.1539 51.8926C41.8422 51.6504 42.4917 51.3091 43.0817 50.8797C43.69 50.4583 44.1796 49.8875 44.5035 49.2221C44.8274 48.5568 44.9746 47.8193 44.9311 47.0807C44.8626 46.1501 44.6249 45.2399 44.2297 44.3947C44.3408 44.2379 44.4475 44.0832 44.5521 43.9264C45.7905 42.0778 46.9068 40.1502 47.8937 38.156C48.0365 38.9885 48.2337 39.8107 48.484 40.6175C48.7799 41.4626 49.1442 42.2822 49.5732 43.0681C48.1484 44.1643 47.0262 45.6051 46.3122 47.2549C45.6108 49.283 46.1553 50.1957 47.1835 50.407C47.7461 50.4458 48.3087 50.3305 48.8107 50.0737C49.5489 49.8311 50.2443 49.4738 50.8715 49.015C51.5327 48.6248 52.0866 48.0762 52.4832 47.4188C52.8798 46.7613 53.1067 46.0156 53.1435 45.2487C53.094 44.4831 52.9212 43.7306 52.6316 43.0202C54.5117 42.2857 56.5502 42.0515 58.548 42.3406C63.8501 42.9636 64.8979 46.2725 64.6974 47.6666C64.6035 48.1609 64.4048 48.6292 64.1147 49.0403C63.8246 49.4514 63.4499 49.7955 63.0158 50.0497C62.6476 50.2828 62.5256 50.3612 62.5583 50.529C62.6019 50.7751 62.7761 50.7621 63.092 50.7185C63.8911 50.4701 64.5962 49.9854 65.1142 49.3281C65.6322 48.6709 65.9388 47.8721 65.9936 47.0371C66.1613 43.7696 63.0419 40.1862 57.5263 40.2188L57.5198 40.2232ZM16.6104 54.0078C14.8503 55.9247 12.3996 56.648 11.341 56.0358C10.2039 55.3823 10.6504 52.5505 12.8114 50.5203C14.0932 49.3664 15.4787 48.3331 16.9502 47.4335C17.2073 47.2767 17.5863 47.0545 18.0394 46.78L18.1614 46.7125L18.4293 46.5448C18.8154 47.8383 18.8504 49.2112 18.5307 50.5227C18.2111 51.8341 17.5483 53.037 16.6104 54.0078ZM29.4213 45.2944C28.8091 46.7866 27.5283 50.6096 26.7484 50.3961C26.0797 50.2175 25.6593 47.3203 26.6156 44.4579C27.0984 43.08 27.8017 41.7896 28.6981 40.6371C29.6565 39.5675 30.7152 39.2103 30.9701 39.6459C30.7375 41.5953 30.2155 43.4991 29.4213 45.2944ZM39.9928 50.3525C39.7357 50.4854 39.4918 50.5704 39.3807 50.5094C39.3023 50.4658 39.4918 50.2915 39.4918 50.2915C39.4918 50.2915 40.8184 48.8647 41.3412 48.2199C41.6418 47.8409 41.9947 47.3965 42.3781 46.8933V47.0371C42.3781 48.7406 40.7291 49.8885 39.995 50.3569L39.9928 50.3525ZM48.1485 48.4922C47.959 48.3593 47.9917 47.9128 48.6278 46.5208C49.07 45.6268 49.6879 44.8312 50.4445 44.1813C50.5605 44.511 50.6209 44.8577 50.6231 45.2073C50.6317 45.9513 50.3938 46.6772 49.9466 47.2718C49.4993 47.8664 48.8679 48.2963 48.1507 48.4944L48.1485 48.4922Z" fill="white"/>
</g>
</g>
</svg>
