<svg width="71" height="73" viewBox="0 0 71 73" fill="none" xmlns="http://www.w3.org/2000/svg">
<g id="ts">
<rect id="Rectangle 2" x="0.5" y="0.928741" width="70" height="72" rx="16" fill="#3178C6"/>
<g id="&#240;&#159;&#166;&#134; icon &#34;file type typescript official&#34;">
<path id="Vector" d="M63.4697 14.9287H14.5303C13.1328 14.9287 12 16.0616 12 17.459V66.3985C12 67.7959 13.1328 68.9287 14.5303 68.9287H63.4697C64.8672 68.9287 66 67.7959 66 66.3985V17.459C66 16.0616 64.8672 14.9287 63.4697 14.9287Z" fill="#3178C6"/>
<path id="Vector_2" fill-rule="evenodd" clip-rule="evenodd" d="M43.3297 56.8925V62.8093C44.4047 63.34 45.5504 63.7134 46.7317 63.9183C48.0967 64.1703 49.4823 64.2942 50.8704 64.2886C52.2232 64.295 53.573 64.1586 54.8972 63.8816C56.0862 63.6414 57.2205 63.1837 58.2433 62.5316C59.1928 61.9187 59.9754 61.0798 60.5209 60.0901C61.498 58.0406 61.6269 55.6884 60.8797 53.5445C60.5643 52.7428 60.0945 52.0108 59.4969 51.3903C58.8554 50.7304 58.1267 50.1614 57.3311 49.6989C56.4151 49.1624 55.4634 48.6895 54.4826 48.2834C53.7112 47.9632 53.0169 47.6521 52.3997 47.3499C51.8516 47.0875 51.327 46.7784 50.8318 46.4261C50.4439 46.1542 50.1071 45.816 49.8367 45.4271C49.603 45.074 49.4814 44.6586 49.4876 44.2353C49.4824 43.8456 49.591 43.4629 49.8 43.1341C50.027 42.7899 50.3298 42.5022 50.6852 42.2932C51.1197 42.0374 51.5924 41.8531 52.0854 41.7474C52.6906 41.613 53.3092 41.5483 53.9291 41.5546C54.4504 41.5564 54.9711 41.5937 55.4874 41.6664C56.0449 41.7418 56.5965 41.8559 57.1382 42.0078C57.6892 42.1605 58.2281 42.3539 58.7505 42.5864C59.2574 42.8123 59.7423 43.0848 60.1989 43.4002V37.8787C59.2483 37.5191 58.2625 37.2605 57.2578 37.1073C56.0445 36.9307 54.8195 36.8476 53.5935 36.8585C52.2534 36.8513 50.9171 37.0034 49.6129 37.3117C48.4341 37.5811 47.3132 38.0599 46.3035 38.7254C45.3656 39.3501 44.5912 40.1907 44.0452 41.1766C43.4665 42.2714 43.1802 43.4969 43.2139 44.7348C43.1712 46.3717 43.7104 47.9708 44.7356 49.2476C45.9934 50.6634 47.5794 51.7488 49.3545 52.4086C50.1645 52.7429 50.9199 53.0701 51.6206 53.3902C52.2528 53.6715 52.8605 54.005 53.4373 54.3873C53.9025 54.6899 54.3112 55.0718 54.6446 55.5155C54.9378 55.918 55.0933 56.4042 55.0882 56.9021C55.0908 57.2752 54.995 57.6424 54.8104 57.9667C54.6053 58.3152 54.3171 58.6074 53.9715 58.8172C53.539 59.0809 53.0659 59.2711 52.5714 59.3804C51.9271 59.5244 51.2682 59.5924 50.6081 59.5828C49.3127 59.5805 48.0276 59.3521 46.8107 58.9079C45.5394 58.4491 44.3605 57.7666 43.3297 56.8925ZM33.3898 42.1621H41.1041V37.2886H19.5947V42.1621H27.2743V63.8662H33.3898V42.1621Z" fill="white"/>
</g>
</g>
</svg>
