<svg width="71" height="73" viewBox="0 0 71 73" fill="none" xmlns="http://www.w3.org/2000/svg">
<g id="html">
<rect id="Rectangle 1" x="0.5" y="0.928741" width="70" height="72" rx="16" fill="#E44F26"/>
<g id="&#240;&#159;&#166;&#134; icon &#34;file type html&#34;">
<path id="Vector" d="M12.1875 65.1085L7 6.92874H64L58.8056 65.0992L35.4654 71.5703L12.1875 65.1085Z" fill="#E44F26"/>
<path id="Vector_2" d="M35.5 66.6253L54.3615 61.3963L58.7987 11.6869H35.5V66.6253Z" fill="#F1662A"/>
<path id="Vector_3" d="M35.5001 33.2633H26.0578L25.4068 25.9565H35.5001V18.8205H35.4747H17.6082L17.7791 20.7367L19.5313 40.3993H35.5001V33.2633Z" fill="#EBEBEB"/>
<path id="Vector_4" d="M35.5 51.7946L35.4677 51.8038L27.5214 49.6591L27.0135 43.9683H23.1511H19.8498L20.8494 55.1698L35.4677 59.2283L35.5 59.2191V51.7946Z" fill="#EBEBEB"/>
<g id="Group">
<path id="Vector_5" d="M35.4746 33.2632V40.3992H44.2613L43.4348 49.6545L35.4746 51.8015V59.226L50.1044 55.1698L50.2106 53.9647L51.8867 35.1794L52.0621 33.2632H50.139H35.4746Z" fill="white"/>
<path id="Vector_6" d="M35.4746 18.8205V23.2531V25.9403V25.9565H52.6878H52.7108L52.854 24.3543L53.1795 20.7367L53.3503 18.8205H35.4746Z" fill="white"/>
</g>
</g>
</g>
</svg>
