<svg width="71" height="73" viewBox="0 0 71 73" fill="none" xmlns="http://www.w3.org/2000/svg">
<g id="js">
<rect id="Rectangle 1" x="0.5" y="0.928741" width="70" height="72" rx="16" fill="#F5DE19"/>
<g id="&#240;&#159;&#166;&#134; icon &#34;file type js official&#34;">
<path id="Vector" d="M11 16.9287H65V68.4364H11V16.9287Z" fill="#F5DE19"/>
<path id="Vector_2" d="M47.2745 57.1691C47.7346 58.0606 48.4494 58.8099 49.3366 59.3306C50.2238 59.8514 51.2472 60.1224 52.2888 60.1124C54.3909 60.1124 55.7351 59.1099 55.7351 57.721C55.7351 56.0654 54.3543 55.4731 52.04 54.5073L50.771 53.9885C47.1067 52.5003 44.6767 50.6369 44.6767 46.6965C44.6767 43.0671 47.5696 40.3022 52.1075 40.3022C53.5765 40.201 55.0442 40.5146 56.3276 41.2039C57.611 41.8932 58.6532 42.9276 59.3242 44.1782L55.3571 46.5972C55.0988 45.9771 54.6489 45.4466 54.0671 45.076C53.4854 44.7054 52.7993 44.5123 52.0998 44.5222C51.7946 44.493 51.4864 44.5248 51.1949 44.6156C50.9033 44.7063 50.6347 44.854 50.4063 45.0492C50.1779 45.2444 49.9946 45.4829 49.8681 45.7494C49.7416 46.0159 49.6747 46.3047 49.6717 46.5972C49.6717 48.0486 50.6148 48.6373 52.7921 49.5405L54.0611 50.0592C58.3734 51.8234 60.8111 53.6206 60.8111 57.6621C60.8111 62.0201 57.2221 64.4078 52.4026 64.4078C50.5247 64.5219 48.6524 64.1153 47.0115 63.2369C45.3706 62.3585 44.0312 61.0459 43.1551 59.4576L47.2745 57.1691ZM29.3484 57.5886C30.1449 58.937 30.8701 60.0775 32.6135 60.0775C34.2798 60.0775 35.3328 59.4557 35.3328 57.0367V40.5781H40.4069V57.1011C40.4069 62.112 37.3211 64.3931 32.8295 64.3931C31.2418 64.4759 29.665 64.0985 28.3064 63.3105C26.9478 62.5225 25.8709 61.3608 25.2174 59.9782L29.3484 57.5886Z" fill="black"/>
</g>
</g>
</svg>
