<svg width="298" height="50" viewBox="0 0 298 50" fill="none" xmlns="http://www.w3.org/2000/svg">
<g clip-path="url(#clip0_6_20)">
<g clip-path="url(#clip1_6_20)">
<g clip-path="url(#clip2_6_20)">
<g clip-path="url(#clip3_6_20)">
<g clip-path="url(#clip4_6_20)">
<g clip-path="url(#clip5_6_20)">
<g clip-path="url(#clip6_6_20)">
<g clip-path="url(#clip7_6_20)">
<path d="M73.2114 13.9954C74.9918 13.9954 76.5541 14.3562 77.8982 15.0776C79.2373 15.799 80.2329 16.7067 80.8849 17.8004V14.3096H84.3455V33.8582C84.3455 35.6036 83.9442 37.1582 83.1418 38.5219C82.3393 39.881 81.1933 40.9446 79.7037 41.7126C78.2092 42.4805 76.4713 42.8645 74.4903 42.8645C71.782 42.8645 69.5251 42.2711 67.7195 41.0842C65.914 39.8973 64.8482 38.2799 64.5222 36.232H67.9076C68.2838 37.3956 69.0611 38.3334 70.2397 39.0456C71.4184 39.753 72.8352 40.1068 74.4903 40.1068C76.371 40.1068 77.9082 39.5599 79.1019 38.4661C80.2905 37.3723 80.8849 35.8363 80.8849 33.8582V29.8438C80.2078 30.9608 79.2047 31.8917 77.8756 32.6364C76.5466 33.3811 74.9918 33.7535 73.2114 33.7535C71.3807 33.7535 69.7207 33.3346 68.2311 32.4968C66.7365 31.659 65.5629 30.4838 64.7103 28.9711C63.8577 27.4584 63.4314 25.7362 63.4314 23.8047C63.4314 21.8498 63.8577 20.1323 64.7103 18.6522C65.5629 17.1767 66.7365 16.0318 68.2311 15.2172C69.7207 14.4027 71.3807 13.9954 73.2114 13.9954ZM80.8849 23.8396C80.8849 22.3967 80.5714 21.14 79.9445 20.0695C79.3176 18.999 78.4725 18.1774 77.4092 17.605C76.3409 17.0371 75.1673 16.7532 73.8884 16.7532C72.6095 16.7532 71.4434 17.0325 70.3902 17.591C69.337 18.1495 68.4969 18.964 67.87 20.0346C67.2431 21.1051 66.9296 22.3618 66.9296 23.8047C66.9296 25.2708 67.2431 26.5438 67.87 27.6236C68.4969 28.7081 69.337 29.5343 70.3902 30.1021C71.4434 30.6746 72.6095 30.9608 73.8884 30.9608C75.1673 30.9608 76.3409 30.6746 77.4092 30.1021C78.4725 29.5343 79.3176 28.7081 79.9445 27.6236C80.5714 26.5438 80.8849 25.2824 80.8849 23.8396ZM88.8593 23.8047C88.8593 21.8498 89.2856 20.1323 90.1382 18.6522C90.9908 17.1767 92.1619 16.0318 93.6515 15.2172C95.146 14.4027 96.8086 13.9954 98.6392 13.9954C100.445 13.9954 102.012 14.3562 103.341 15.0776C104.67 15.799 105.661 16.7067 106.313 17.8004V14.3096H109.773V33.4393H106.313V29.8787C105.636 30.9957 104.625 31.9196 103.281 32.6504C101.942 33.3858 100.382 33.7535 98.6016 33.7535C96.771 33.7535 95.1159 33.3346 93.6364 32.4968C92.1569 31.659 90.9908 30.4838 90.1382 28.9711C89.2856 27.4584 88.8593 25.7362 88.8593 23.8047ZM106.313 23.8396C106.313 22.3967 105.999 21.14 105.372 20.0695C104.745 18.999 103.898 18.1774 102.83 17.605C101.766 17.0371 100.595 16.7532 99.3163 16.7532C98.0374 16.7532 96.8713 17.0325 95.8181 17.591C94.7649 18.1495 93.9248 18.964 93.2979 20.0346C92.671 21.1051 92.3575 22.3618 92.3575 23.8047C92.3575 25.2708 92.671 26.5438 93.2979 27.6236C93.9248 28.7081 94.7649 29.5343 95.8181 30.1021C96.8713 30.6746 98.0374 30.9608 99.3163 30.9608C100.595 30.9608 101.766 30.6746 102.83 30.1021C103.898 29.5343 104.745 28.7081 105.372 27.6236C105.999 26.5438 106.313 25.2824 106.313 23.8396ZM118.989 17.8703C119.691 16.7299 120.719 15.799 122.074 15.0776C123.428 14.3562 124.97 13.9954 126.7 13.9954C128.556 13.9954 130.223 14.4027 131.703 15.2172C133.183 16.0318 134.349 17.1767 135.201 18.6522C136.054 20.1323 136.48 21.8498 136.48 23.8047C136.48 25.7362 136.054 27.4584 135.201 28.9711C134.349 30.4838 133.175 31.659 131.68 32.4968C130.191 33.3346 128.531 33.7535 126.7 33.7535C124.92 33.7535 123.357 33.3928 122.013 32.6713C120.674 31.9499 119.666 31.0306 118.989 29.9136V33.4393H115.566V7.60725H118.989V17.8703ZM132.982 23.8047C132.982 22.3618 132.668 21.1051 132.042 20.0346C131.415 18.964 130.567 18.1495 129.499 17.591C128.436 17.0325 127.264 16.7532 125.985 16.7532C124.732 16.7532 123.571 17.0371 122.502 17.605C121.439 18.1774 120.586 19.0036 119.944 20.0834C119.308 21.1679 118.989 22.42 118.989 23.8396C118.989 25.2824 119.308 26.5438 119.944 27.6236C120.586 28.7081 121.439 29.5343 122.502 30.1021C123.571 30.6746 124.732 30.9608 125.985 30.9608C127.264 30.9608 128.436 30.6746 129.499 30.1021C130.567 29.5343 131.415 28.7081 132.042 27.6236C132.668 26.5438 132.982 25.2708 132.982 23.8047ZM144.409 17.4165C145.011 16.3227 145.871 15.4732 146.99 14.8682C148.103 14.2631 149.462 13.9605 151.067 13.9605V17.2419H150.165C146.328 17.2419 144.409 19.1735 144.409 23.0367V33.4393H140.986V14.3096H144.409V17.4165ZM156.785 11.2028C156.133 11.2028 155.581 10.9933 155.13 10.5744C154.678 10.1555 154.453 9.64356 154.453 9.03848C154.453 8.43341 154.678 7.92142 155.13 7.50252C155.581 7.08362 156.133 6.87418 156.785 6.87418C157.412 6.87418 157.946 7.08362 158.387 7.50252C158.824 7.92142 159.042 8.43341 159.042 9.03848C159.042 9.64356 158.824 10.1555 158.387 10.5744C157.946 10.9933 157.412 11.2028 156.785 11.2028ZM155.017 14.3096H158.44V33.4393H155.017V14.3096ZM183.078 23.1414C183.078 23.7465 183.04 24.3865 182.965 25.0613H166.49C166.615 26.9464 167.31 28.4172 168.573 29.4737C169.842 30.535 171.38 31.0656 173.185 31.0656C174.665 31.0656 175.898 30.7444 176.886 30.1021C177.879 29.4644 178.577 28.6103 178.978 27.5398H182.664C182.112 29.3783 181.009 30.8747 179.354 32.029C177.699 33.1787 175.643 33.7535 173.185 33.7535C171.229 33.7535 169.479 33.3462 167.934 32.5317C166.394 31.7172 165.186 30.5582 164.308 29.0548C163.43 27.5561 162.991 25.8177 162.991 23.8396C162.991 21.8614 163.418 20.1277 164.27 18.6382C165.123 17.1488 166.319 16.0015 167.859 15.1963C169.403 14.3957 171.179 13.9954 173.185 13.9954C175.141 13.9954 176.871 14.3911 178.376 15.1823C179.881 15.9736 181.039 17.0604 181.852 18.4428C182.669 19.8298 183.078 21.396 183.078 23.1414ZM179.542 22.4781C179.542 21.268 179.254 20.2254 178.677 19.3504C178.1 18.48 177.315 17.8167 176.322 17.3606C175.334 16.9091 174.238 16.6834 173.035 16.6834C171.304 16.6834 169.83 17.1954 168.611 18.2193C167.397 19.2433 166.703 20.6629 166.527 22.4781H179.542ZM187.592 7.60725H191.015V33.4393H187.592V7.60725ZM195.559 23.8047C195.559 21.8498 195.985 20.1323 196.838 18.6522C197.69 17.1767 198.864 16.0318 200.358 15.2172C201.848 14.4027 203.508 13.9954 205.339 13.9954C207.144 13.9954 208.711 14.3562 210.04 15.0776C211.37 15.799 212.36 16.7067 213.012 17.8004V14.3096H216.473V33.4393H213.012V29.8787C212.335 30.9957 211.327 31.9196 209.988 32.6504C208.644 33.3858 207.081 33.7535 205.301 33.7535C203.47 33.7535 201.815 33.3346 200.336 32.4968C198.856 31.659 197.69 30.4838 196.838 28.9711C195.985 27.4584 195.559 25.7362 195.559 23.8047ZM213.012 23.8396C213.012 22.3967 212.699 21.14 212.072 20.0695C211.445 18.999 210.6 18.1774 209.536 17.605C208.468 17.0371 207.295 16.7532 206.016 16.7532C204.737 16.7532 203.571 17.0325 202.517 17.591C201.464 18.1495 200.624 18.964 199.997 20.0346C199.37 21.1051 199.057 22.3618 199.057 23.8047C199.057 25.2708 199.37 26.5438 199.997 27.6236C200.624 28.7081 201.464 29.5343 202.517 30.1021C203.571 30.6746 204.737 30.9608 206.016 30.9608C207.295 30.9608 208.468 30.6746 209.536 30.1021C210.6 29.5343 211.445 28.7081 212.072 27.6236C212.699 26.5438 213.012 25.2824 213.012 23.8396ZM223.356 33.6488C222.704 33.6488 222.153 33.4393 221.701 33.0204C221.25 32.6015 221.024 32.0895 221.024 31.4845C221.024 30.8794 221.25 30.3674 221.701 29.9485C222.153 29.5296 222.704 29.3201 223.356 29.3201C223.983 29.3201 224.517 29.5296 224.959 29.9485C225.395 30.3674 225.613 30.8794 225.613 31.4845C225.613 32.0895 225.395 32.6015 224.959 33.0204C224.517 33.4393 223.983 33.6488 223.356 33.6488ZM228.886 23.8047C228.886 21.8498 229.312 20.1323 230.165 18.6522C231.017 17.1767 232.188 16.0318 233.678 15.2172C235.172 14.4027 236.848 13.9954 238.703 13.9954C240.308 13.9954 241.8 14.3375 243.179 15.0217C244.559 15.7106 245.612 16.6136 246.339 17.7306V7.60725H249.8V33.4393H246.339V29.8438C245.662 30.9841 244.659 31.9196 243.33 32.6504C242.001 33.3858 240.446 33.7535 238.666 33.7535C236.835 33.7535 235.172 33.3346 233.678 32.4968C232.188 31.659 231.017 30.4838 230.165 28.9711C229.312 27.4584 228.886 25.7362 228.886 23.8047ZM246.339 23.8396C246.339 22.3967 246.026 21.14 245.399 20.0695C244.772 18.999 243.924 18.1774 242.856 17.605C241.793 17.0371 240.622 16.7532 239.343 16.7532C238.064 16.7532 236.898 17.0325 235.844 17.591C234.791 18.1495 233.951 18.964 233.324 20.0346C232.697 21.1051 232.384 22.3618 232.384 23.8047C232.384 25.2708 232.697 26.5438 233.324 27.6236C233.951 28.7081 234.791 29.5343 235.844 30.1021C236.898 30.6746 238.064 30.9608 239.343 30.9608C240.622 30.9608 241.793 30.6746 242.856 30.1021C243.924 29.5343 244.772 28.7081 245.399 27.6236C246.026 26.5438 246.339 25.2824 246.339 23.8396ZM274.4 23.1414C274.4 23.7465 274.362 24.3865 274.287 25.0613H257.812C257.937 26.9464 258.632 28.4172 259.896 29.4737C261.165 30.535 262.702 31.0656 264.507 31.0656C265.987 31.0656 267.221 30.7444 268.209 30.1021C269.202 29.4644 269.899 28.6103 270.3 27.5398H273.986C273.435 29.3783 272.331 30.8747 270.676 32.029C269.021 33.1787 266.965 33.7535 264.507 33.7535C262.551 33.7535 260.801 33.3462 259.256 32.5317C257.716 31.7172 256.508 30.5582 255.63 29.0548C254.752 27.5561 254.314 25.8177 254.314 23.8396C254.314 21.8614 254.74 20.1277 255.592 18.6382C256.445 17.1488 257.641 16.0015 259.181 15.1963C260.726 14.3957 262.501 13.9954 264.507 13.9954C266.463 13.9954 268.194 14.3911 269.698 15.1823C271.203 15.9736 272.361 17.0604 273.174 18.4428C273.991 19.8298 274.4 21.396 274.4 23.1414ZM270.864 22.4781C270.864 21.268 270.576 20.2254 269.999 19.3504C269.422 18.48 268.637 17.8167 267.644 17.3606C266.656 16.9091 265.561 16.6834 264.357 16.6834C262.627 16.6834 261.152 17.1954 259.933 18.2193C258.72 19.2433 258.025 20.6629 257.849 22.4781H270.864ZM280.148 14.3096L286.58 30.507L292.974 14.3096H296.623L288.536 33.4393H284.549L276.461 14.3096H280.148Z" fill="white"/>
</g>
</g>
</g>
</g>
<g clip-path="url(#clip8_6_20)">
<g clip-path="url(#clip9_6_20)">
<path d="M49.3621 49.7387H5.57318C2.83638 49.7387 0.669739 47.728 0.669739 45.1882V4.55057C0.669739 2.01072 2.83638 0 5.57318 0H49.3621C52.0989 0 54.2655 2.01072 54.2655 4.55057V45.1882C54.2655 47.728 52.0989 49.7387 49.3621 49.7387ZM5.57318 4.12726C5.34511 4.12726 5.11705 4.33891 5.11705 4.55057V45.1882C5.11705 45.3998 5.34511 45.6115 5.57318 45.6115H49.3621C49.5901 45.6115 49.8182 45.3998 49.8182 45.1882V4.55057C49.8182 4.33891 49.5901 4.12726 49.3621 4.12726H5.57318Z" fill="white"/>
<path d="M18.687 33.2297C18.1168 33.2297 17.5466 33.018 17.0905 32.5947L10.3625 26.3509C9.45028 25.5043 9.45028 24.2344 10.3625 23.3878L17.0905 17.144C18.0028 16.2974 19.3712 16.2974 20.2834 17.144C21.1957 17.9906 21.1957 19.2605 20.2834 20.1071L15.1519 24.8694L20.2834 29.6316C21.1957 30.4782 21.1957 31.7481 20.2834 32.5947C19.8273 33.018 19.2571 33.2297 18.687 33.2297Z" fill="white"/>
<path d="M36.2481 33.2297C35.678 33.2297 35.1078 33.018 34.6517 32.5947C33.7394 31.7481 33.7394 30.4782 34.6517 29.6316L39.7832 24.8694L34.6517 20.1071C33.7394 19.2605 33.7394 17.9906 34.6517 17.144C35.5639 16.2974 36.9323 16.2974 37.8446 17.144L44.5726 23.3878C45.0287 23.8111 45.2568 24.3402 45.2568 24.8694C45.2568 25.3985 45.0287 25.9276 44.5726 26.3509L37.8446 32.5947C37.3885 33.018 36.8183 33.2297 36.2481 33.2297Z" fill="white"/>
<path d="M22.9063 36.5104C22.5642 36.5104 22.3361 36.4045 21.994 36.2987C20.8537 35.8754 20.3976 34.6055 20.8537 33.5472L29.9764 14.2867C30.4325 13.2284 31.8009 12.8051 32.9412 13.2284C34.0816 13.6517 34.5377 14.9216 34.0816 15.9799L24.9589 35.2404C24.6168 36.0871 23.7045 36.5104 22.9063 36.5104Z" fill="white"/>
</g>
</g>
</g>
</g>
</g>
</g>
<defs>
<clipPath id="clip0_6_20">
<rect width="297.664" height="50" fill="white"/>
</clipPath>
<clipPath id="clip1_6_20">
<rect width="297.664" height="50" fill="white" transform="translate(-0.179626 -0.130615)"/>
</clipPath>
<clipPath id="clip2_6_20">
<rect width="295.966" height="49.7387" fill="white" transform="translate(0.669739)"/>
</clipPath>
<clipPath id="clip3_6_20">
<rect width="295.966" height="49.7387" fill="white" transform="translate(0.669739)"/>
</clipPath>
<clipPath id="clip4_6_20">
<rect width="233.214" height="35.9903" fill="white" transform="translate(63.4208 6.87418)"/>
</clipPath>
<clipPath id="clip5_6_20">
<rect width="233.214" height="35.9903" fill="white" transform="translate(63.4208 6.87418)"/>
</clipPath>
<clipPath id="clip6_6_20">
<rect width="233.214" height="35.9903" fill="white" transform="translate(63.4208 6.87418)"/>
</clipPath>
<clipPath id="clip7_6_20">
<rect width="233.214" height="35.9903" fill="white" transform="translate(63.4208 6.87418)"/>
</clipPath>
<clipPath id="clip8_6_20">
<rect width="53.5958" height="49.7387" fill="white" transform="translate(0.669739)"/>
</clipPath>
<clipPath id="clip9_6_20">
<rect width="53.5958" height="49.7387" fill="white" transform="translate(0.669739)"/>
</clipPath>
</defs>
</svg>
