<svg width="71" height="73" viewBox="0 0 71 73" fill="none" xmlns="http://www.w3.org/2000/svg">
<g id="next">
<rect id="Rectangle 2" x="0.5" y="0.928741" width="70" height="72" rx="16" fill="black"/>
<g id="&#240;&#159;&#166;&#134; icon &#34;file type light next&#34;">
<path id="Vector" d="M63.731 33.2726C62.9492 28.0027 60.7112 23.0558 57.2692 18.9893C53.8272 14.9228 49.318 11.8983 44.2496 10.2567C42.3194 9.64376 40.3321 9.22789 38.3181 9.01546C37.7829 8.96052 34.1019 8.89947 33.638 8.94424C33.5159 8.94424 33.1252 8.99307 32.7752 9.02156C28.7179 9.41428 24.7917 10.6711 21.2605 12.7074C17.7293 14.7438 14.6749 17.5126 12.3028 20.8276C9.64937 24.5107 7.92447 28.78 7.2748 33.2726C7.05593 34.6421 6.96804 36.0293 7.0123 37.4155C6.9657 38.8035 7.05155 40.1928 7.26869 41.5645C8.04912 46.8355 10.2865 51.7836 13.7287 55.8509C17.1708 59.9183 21.6808 62.9432 26.7501 64.5845C28.7072 65.2046 30.7227 65.6226 32.7651 65.8318C34.5829 65.9275 36.4046 65.9275 38.2225 65.8318C41.8019 65.4818 45.2839 64.4638 48.4881 62.8305C48.9765 62.5802 49.0721 62.513 49.005 62.4581C48.9378 62.4032 46.8725 59.6236 44.3656 56.2376L39.8096 50.0843L34.1121 41.6357C30.9703 36.9923 28.3861 33.1953 28.3637 33.1953C28.3413 33.1953 28.319 36.9414 28.3088 41.5259C28.4541 44.3742 28.4133 47.2291 28.1867 50.0721C28.0889 50.2941 27.9149 50.4738 27.6963 50.5788C27.5172 50.6683 27.3606 50.6846 26.5202 50.6846H25.5577L25.3013 50.5239C25.1425 50.424 25.0132 50.2835 24.9269 50.1169L24.8109 49.8666L24.8211 38.7015L24.8394 27.5303L25.0103 27.3126C25.1256 27.177 25.2633 27.0621 25.4173 26.9728C25.6452 26.8629 25.7347 26.8507 26.6972 26.8507C27.8347 26.8507 28.0239 26.8955 28.3251 27.219C28.4085 27.3085 31.4994 31.9622 35.1967 37.5702C38.8939 43.1781 43.9464 50.8352 46.437 54.5935L50.9442 61.4264L51.1721 61.2759C53.3442 59.8316 55.3131 58.1029 57.0263 56.1359C60.6156 52.0283 62.9436 46.9724 63.731 41.5747C63.9488 40.1996 64.0347 38.8069 63.9874 37.4155C64.0337 36.0295 63.9478 34.6423 63.731 33.2726ZM45.9039 37.0472L45.8876 47.0606L44.1214 44.3543L42.3511 41.6479V34.3633C42.3511 29.6588 42.3735 27.0135 42.4061 26.8853C42.4458 26.7371 42.5151 26.5985 42.6099 26.4778C42.7047 26.3572 42.8229 26.257 42.9575 26.1833C43.1854 26.0653 43.2688 26.0551 44.1438 26.0551C44.9577 26.0551 45.1124 26.0653 45.2955 26.167C45.4287 26.2332 45.5472 26.3256 45.644 26.4385C45.7408 26.5514 45.814 26.6825 45.8592 26.8242C45.9039 26.9748 45.9141 30.0698 45.9039 37.0472Z" fill="white"/>
</g>
</g>
</svg>
