<svg width="71" height="73" viewBox="0 0 71 73" fill="none" xmlns="http://www.w3.org/2000/svg">
<g id="react">
<rect id="Rectangle 1" x="0.5" y="0.928741" width="70" height="72" rx="16" fill="#00142B"/>
<g id="&#240;&#159;&#166;&#134; icon &#34;file type reactjs&#34;">
<g id="Group">
<path id="Vector" d="M36.0001 41.9935C39.0574 41.9935 41.5358 39.5151 41.5358 36.4578C41.5358 33.4005 39.0574 30.9221 36.0001 30.9221C32.9428 30.9221 30.4644 33.4005 30.4644 36.4578C30.4644 39.5151 32.9428 41.9935 36.0001 41.9935Z" fill="#00D8FF"/>
<path id="Vector_2" d="M36 49.1501C29.3464 49.3111 22.7094 48.4142 16.3371 46.493C13.3935 45.5599 10.6481 44.0899 8.2395 42.1574C7.32042 41.4972 6.55503 40.6461 5.99586 39.6622C5.43668 38.6784 5.09696 37.5853 5 36.4578C5 32.7976 9.02114 29.2105 15.757 26.8633C22.2996 24.7836 29.1355 23.7756 36 23.8785C42.7728 23.7839 49.5172 24.7736 55.9773 26.8102C58.8122 27.714 61.4646 29.1129 63.8114 30.9421C64.7148 31.5715 65.4687 32.3918 66.0197 33.345C66.5708 34.2982 66.9054 35.3609 67 36.4578C67 40.262 62.505 44.1171 55.2643 46.5129C49.0154 48.3715 42.5185 49.2609 36 49.1501ZM36 26.5268C29.4327 26.439 22.8933 27.3972 16.6272 29.3655C10.4272 31.5288 7.64829 34.4871 7.64829 36.4512C7.64829 38.5061 10.6354 41.7367 17.1941 43.9798C23.2902 45.8085 29.6375 46.6597 36 46.5019C42.2363 46.6134 48.453 45.7696 54.4339 43.9997C61.2429 41.7434 64.3429 38.5083 64.3429 36.4578C64.2311 35.7542 63.9747 35.0814 63.5898 34.4819C63.2048 33.8824 62.6998 33.3692 62.1064 32.9748C60.0067 31.352 57.6373 30.1122 55.1071 29.3123C48.9271 27.3721 42.4767 26.4317 36 26.5268Z" fill="#00D8FF"/>
<path id="Vector_3" d="M23.4229 64.0677C22.3899 64.0914 21.3692 63.8408 20.4646 63.3414C17.2938 61.5124 16.1955 56.238 17.5263 49.2298C18.9936 42.5229 21.5359 36.0975 25.0548 30.2024C28.3557 24.2883 32.5816 18.9404 37.5722 14.3614C39.7713 12.3568 42.3083 10.7578 45.0653 9.63835C46.0626 9.171 47.1504 8.92874 48.2517 8.92874C49.353 8.92874 50.4408 9.171 51.438 9.63835C54.7351 11.5382 55.8268 17.3574 54.2878 24.8261C52.7752 31.1691 50.2989 37.2426 46.9453 42.8349C43.7605 48.6792 39.6677 53.9806 34.8198 58.5409C32.5409 60.624 29.896 62.2674 27.0189 63.3879C25.8671 63.8154 24.6513 64.0453 23.4229 64.0677ZM27.3488 31.5177C23.9922 37.1627 21.5555 43.3059 20.1303 49.7169C18.9058 56.1716 20.0816 60.0532 21.791 61.0408C23.5624 62.066 27.8626 61.0939 33.0838 56.5325C37.7118 52.1636 41.6182 47.089 44.6579 41.4975C47.8707 36.1511 50.2461 30.3445 51.7015 24.2792C53.1497 17.2489 51.8986 12.9443 50.1228 11.9213C49.4572 11.6663 48.7459 11.5521 48.034 11.586C47.322 11.6199 46.6248 11.8012 45.9865 12.1184C43.5323 13.131 41.2761 14.5687 39.3215 16.3654C34.5534 20.7514 30.5168 25.8711 27.3643 31.531L27.3488 31.5177Z" fill="#00D8FF"/>
<path id="Vector_4" d="M48.5704 64.0964C45.5701 64.0964 41.7593 62.2807 37.7913 58.8685C32.7133 54.2479 28.4159 48.8364 25.0658 42.8437C21.591 37.0298 19.0688 30.6974 17.5948 24.0865C16.9555 21.178 16.8371 18.1792 17.2449 15.2294C17.3392 14.1351 17.6724 13.0748 18.221 12.1233C18.7697 11.1718 19.5204 10.3522 20.4202 9.72243C23.7128 7.81593 29.2995 9.77558 35.0013 14.8374C39.7412 19.3151 43.7663 24.4933 46.9363 30.1913C50.4089 35.8695 52.9576 42.0633 54.487 48.5411C55.1537 51.5563 55.2566 54.6689 54.7903 57.7215C54.6794 58.8473 54.3263 59.9357 53.7553 60.9122C53.1843 61.8888 52.4089 62.7302 51.4822 63.379C50.5924 63.8722 49.5875 64.1198 48.5704 64.0964ZM27.3576 41.5107C30.5714 47.2378 34.6764 52.4169 39.5184 56.8535C44.4983 61.1381 48.4486 62.0593 50.147 61.0606C51.9184 60.031 53.2248 55.8283 51.8786 49.0282C50.4036 42.8436 47.959 36.9314 44.6356 31.511C41.6105 26.0575 37.7686 21.0991 33.2431 16.8081C27.8757 12.043 23.5224 10.9779 21.7488 12.0054C21.196 12.4546 20.7423 13.0136 20.4164 13.647C20.0906 14.2804 19.8996 14.9745 19.8556 15.6855C19.5035 18.3163 19.6182 20.9885 20.1943 23.5794C21.6122 29.9015 24.0311 35.9564 27.3598 41.5151L27.3576 41.5107Z" fill="#00D8FF"/>
</g>
</g>
</g>
</svg>
