<svg width="71" height="73" viewBox="0 0 71 73" fill="none" xmlns="http://www.w3.org/2000/svg">
<g id="tailwind">
<rect id="Rectangle 2" x="0.5" y="0.928741" width="70" height="72" rx="16" fill="#00142B"/>
<g id="&#240;&#159;&#166;&#134; icon &#34;file type tailwind&#34;">
<path id="Vector" d="M21.25 31.3287C23.15 23.7287 27.9 19.9287 35.5 19.9287C46.9 19.9287 48.325 28.4787 54.025 29.9037C57.825 30.8537 61.15 29.4287 64 25.6287C62.1 33.2287 57.35 37.0287 49.75 37.0287C38.35 37.0287 36.925 28.4787 31.225 27.0537C27.425 26.1037 24.1 27.5287 21.25 31.3287ZM7 48.4287C8.9 40.8287 13.65 37.0287 21.25 37.0287C32.65 37.0287 34.075 45.5787 39.775 47.0037C43.575 47.9537 46.9 46.5287 49.75 42.7287C47.85 50.3287 43.1 54.1287 35.5 54.1287C24.1 54.1287 22.675 45.5787 16.975 44.1537C13.175 43.2037 9.85 44.6287 7 48.4287Z" fill="#44A8B3"/>
</g>
</g>
</svg>
